<svg width="24" height="24" viewBox="0 0 24 24" fill="none" xmlns="http://www.w3.org/2000/svg">
<path d="M7.615 20.0001C7.16833 20.0001 6.78733 19.8428 6.472 19.5281C6.15733 19.2134 6 18.8324 6 18.3851V6.0001H5V5.0001H9V4.2301H15V5.0001H19V6.0001H18V18.3851C18 18.8451 17.846 19.2291 17.538 19.5371C17.2293 19.8458 16.845 20.0001 16.385 20.0001H7.615ZM17 6.0001H7V18.3851C7 18.5644 7.05767 18.7118 7.173 18.8271C7.28833 18.9424 7.43567 19.0001 7.615 19.0001H16.385C16.5383 19.0001 16.6793 18.9361 16.808 18.8081C16.936 18.6794 17 18.5384 17 18.3851V6.0001ZM9.808 17.0001H10.808V8.0001H9.808V17.0001ZM13.192 17.0001H14.192V8.0001H13.192V17.0001Z" fill="white"/>
</svg>
