<svg width="24" height="24" viewBox="0 0 24 24" fill="none" xmlns="http://www.w3.org/2000/svg">
<path d="M12.0345 16.2676L5.53154 7.74409C5.51441 7.72182 5.50377 7.69505 5.50083 7.66687C5.49789 7.63868 5.50278 7.61022 5.51493 7.58475C5.52708 7.55928 5.546 7.53783 5.56952 7.52287C5.59304 7.50791 5.62021 7.50005 5.6479 7.50018H7.07556C7.16605 7.50018 7.25286 7.54367 7.30827 7.61552L12.4999 14.4222L17.6916 7.61552C17.747 7.54178 17.8338 7.50018 17.9243 7.50018L19.3519 7.50018C19.4757 7.50018 19.544 7.64577 19.4683 7.74409L12.9653 16.2676C12.9101 16.34 12.8395 16.3986 12.7589 16.4389C12.6782 16.4792 12.5897 16.5002 12.4999 16.5002C12.4102 16.5002 12.3216 16.4792 12.241 16.4389C12.1603 16.3986 12.0897 16.34 12.0345 16.2676Z" fill="white"/>
</svg>
