<svg width="18" height="18" viewBox="0 0 18 18" fill="none" xmlns="http://www.w3.org/2000/svg">
<path d="M9.02588 12.2007L4.14866 5.80811C4.13581 5.79141 4.12783 5.77133 4.12562 5.7502C4.12342 5.72906 4.12708 5.70771 4.1362 5.68861C4.14531 5.6695 4.1595 5.65342 4.17714 5.6422C4.19478 5.63098 4.21516 5.62508 4.23592 5.62518H5.30667C5.37454 5.62518 5.43964 5.6578 5.4812 5.71169L9.37494 10.8167L13.2687 5.71169C13.3102 5.65638 13.3753 5.62518 13.4432 5.62518H14.514C14.6068 5.62518 14.658 5.73437 14.6012 5.80811L9.72401 12.2007C9.68261 12.2551 9.62965 12.299 9.56916 12.3292C9.50868 12.3595 9.44225 12.3752 9.37494 12.3752C9.30763 12.3752 9.24121 12.3595 9.18072 12.3292C9.12023 12.299 9.06728 12.2551 9.02588 12.2007Z" fill="white"/>
</svg>
