<svg width="24" height="24" viewBox="0 0 24 24" fill="none" xmlns="http://www.w3.org/2000/svg">
<path d="M4 17.0002C4 15.9393 4.42143 14.9219 5.17157 14.1718C5.92172 13.4216 6.93913 13.0002 8 13.0002H16C17.0609 13.0002 18.0783 13.4216 18.8284 14.1718C19.5786 14.9219 20 15.9393 20 17.0002C20 17.5306 19.7893 18.0393 19.4142 18.4144C19.0391 18.7895 18.5304 19.0002 18 19.0002H6C5.46957 19.0002 4.96086 18.7895 4.58579 18.4144C4.21071 18.0393 4 17.5306 4 17.0002Z" stroke="white" stroke-width="1.4" stroke-linejoin="round"/>
<path d="M12 11.0002C13.6569 11.0002 15 9.65704 15 8.00018C15 6.34333 13.6569 5.00018 12 5.00018C10.3431 5.00018 9 6.34333 9 8.00018C9 9.65704 10.3431 11.0002 12 11.0002Z" stroke="white" stroke-width="1.4"/>
</svg>
