<svg width="24" height="24" viewBox="0 0 24 24" fill="none" xmlns="http://www.w3.org/2000/svg">
<path d="M3.885 16.5002V16.0002H3.94036C3.90351 16.16 3.885 16.3269 3.885 16.5002ZM3.885 16.5002C3.885 17.0964 4.08719 17.5866 4.49925 18.0003L4.16857 18.3297L4.49925 18.0003C4.86107 18.3636 5.28367 18.5641 5.78775 18.6066C5.29447 18.5614 4.85913 18.3564 4.50145 17.9987C4.09272 17.59 3.885 17.0805 3.885 16.5002ZM6.34475 18.5905C6.78846 18.5253 7.16831 18.3305 7.49938 18.0017L6.34475 18.5905ZM6.34475 18.5905C6.78327 18.5235 7.17309 18.3255 7.49918 18.0001L7.49993 17.9994C7.90751 17.5909 8.11519 17.0825 8.116 16.5036C8.11523 17.1021 7.91183 17.5914 7.49945 18.0016L6.34475 18.5905ZM20.5 16.5002C20.5 15.9199 20.2923 15.4104 19.8836 15.0016C19.4748 14.5929 18.9653 14.3852 18.385 14.3852C17.8047 14.3852 17.2952 14.5929 16.8864 15.0016C16.6207 15.2673 16.44 15.5757 16.346 15.9183V15.5002V14.0002H16.846H21.558H22.116V16.0002H21H20.5V16.5002ZM20.5 16.5002C20.5 17.0482 20.3148 17.533 19.95 17.9295C20.3191 17.5306 20.5 17.0624 20.5 16.5002ZM16.27 16.5002C16.27 17.0964 16.4722 17.5866 16.8842 18.0003C17.2949 18.4126 17.7835 18.6152 18.38 18.6152C18.3817 18.6152 18.3833 18.6152 18.385 18.6152C17.8047 18.6152 17.2952 18.4075 16.8864 17.9987C16.4777 17.59 16.27 17.0805 16.27 16.5002ZM16.27 16.5002C16.27 16.3269 16.2885 16.16 16.3254 16.0002H16.27V16.5002ZM18.8646 9.11518H18.9028L21.025 11.9682L19.0146 9.31333L18.8646 9.11518ZM18.5223 18.6112C18.9956 18.5837 19.4184 18.4128 19.7731 18.1022C19.4168 18.4158 19.0056 18.584 18.5223 18.6112ZM2.81617 5.81712L2.81694 5.81635C3.02541 5.60743 3.2798 5.50018 3.616 5.50018C3.30627 5.50018 3.04349 5.63458 2.83945 5.83863C2.63621 6.04186 2.50053 6.3038 2.5 6.61336C2.50039 6.27895 2.60747 6.02536 2.81617 5.81712ZM8.116 16.0002V16.4987C8.11589 16.326 8.09738 16.1595 8.06064 16.0002H8.116Z" stroke="white"/>
</svg>
