<svg width="27" height="30" viewBox="0 0 27 30" fill="none" xmlns="http://www.w3.org/2000/svg">
<path d="M20.6963 15.6222L20.6963 15.6223C20.7169 15.7465 20.7112 15.874 20.6798 15.9954C20.6483 16.1168 20.5923 16.228 20.5167 16.3218C20.4412 16.4155 20.3483 16.4892 20.2456 16.5392C20.143 16.5891 20.0323 16.6146 19.921 16.6148C19.9208 16.6148 19.9207 16.6148 19.9206 16.6148L15.9139 16.6148C15.9139 16.6148 15.9138 16.6148 15.9138 16.6148C15.7443 16.6148 15.5776 16.6533 15.4255 16.7268C15.2734 16.8003 15.1402 16.9066 15.0343 17.0369C14.9285 17.1671 14.8521 17.3185 14.8093 17.48C14.7666 17.6414 14.758 17.8102 14.7841 17.975L14.7841 17.9746L15.278 17.8971L14.7842 17.9754L20.6963 15.6222ZM20.6963 15.6222L20.151 12.3284C19.7482 9.8962 17.6572 8.11672 15.2107 8.11672H11.6159C11.4251 8.11682 11.2375 8.19141 11.0908 8.33193C10.9436 8.47302 10.8487 8.67063 10.8308 8.88739L10.8308 8.88753L10.2028 16.4702C10.2028 16.4703 10.2028 16.4704 10.2028 16.4704C10.1916 16.6074 10.2117 16.7447 10.2608 16.8708C10.3099 16.9968 10.3861 17.1068 10.4815 17.1929C10.4816 17.193 10.4817 17.1931 10.4818 17.1932L11.594 18.1936C11.5941 18.1936 11.5941 18.1937 11.5942 18.1937C11.5942 18.1937 11.5942 18.1938 11.5942 18.1938C12.12 18.6662 12.6745 19.2195 13.0391 19.9321C13.2766 20.3957 13.4603 20.8867 13.5867 21.3948L13.5867 21.3948L13.9549 22.8754L13.9549 22.8756L20.6963 15.6222ZM15.2969 21.2402L15.7908 21.1627L15.2969 21.2402C15.2969 21.2402 15.2969 21.2402 15.2969 21.2402ZM15.2365 22.6328C15.2366 22.6322 15.2368 22.6316 15.237 22.631L15.7212 22.7555L15.2359 22.635C15.2361 22.6343 15.2363 22.6336 15.2365 22.6328ZM14.7644 23.7114L14.6042 23.2377L14.605 23.2375C14.6051 23.2374 14.6053 23.2374 14.6055 23.2373L14.7644 23.7114ZM14.22 23.2096C14.2202 23.2097 14.2203 23.2098 14.2205 23.2099L13.9956 23.6565L14.2195 23.2094C14.2197 23.2095 14.2198 23.2096 14.22 23.2096Z" fill="#CB8620" stroke="#CB8620"/>
<path fill-rule="evenodd" clip-rule="evenodd" d="M7.26186 17.7202C7.41134 17.7271 7.55756 17.6733 7.66998 17.5703C7.78241 17.4672 7.85233 17.3228 7.86516 17.1672L8.61542 8.09624C8.62812 7.96116 8.61432 7.82479 8.57484 7.69547C8.53536 7.56614 8.47104 7.44657 8.38581 7.34406C8.30057 7.24156 8.19621 7.15826 8.0791 7.09926C7.96199 7.04027 7.83458 7.0068 7.70467 7.00093C7.57475 6.99505 7.44505 7.01687 7.32348 7.06507C7.20192 7.11327 7.09104 7.18682 6.99763 7.28125C6.90421 7.37567 6.83022 7.48898 6.78017 7.61425C6.73011 7.73952 6.70505 7.87413 6.70651 8.00986V17.1156C6.70657 17.2716 6.76437 17.4217 6.86784 17.5343C6.97132 17.647 7.11247 17.7136 7.26186 17.7202Z" fill="#CB8620"/>
</svg>
