<svg width="19" height="18" viewBox="0 0 19 18" fill="none" xmlns="http://www.w3.org/2000/svg">
<path d="M9.52588 12.2007L4.64866 5.80811C4.63581 5.79141 4.62783 5.77133 4.62562 5.7502C4.62342 5.72906 4.62708 5.70771 4.6362 5.68861C4.64531 5.6695 4.6595 5.65342 4.67714 5.6422C4.69478 5.63098 4.71516 5.62508 4.73592 5.62518H5.80667C5.87454 5.62518 5.93964 5.6578 5.9812 5.71169L9.87494 10.8167L13.7687 5.71169C13.8102 5.65638 13.8753 5.62518 13.9432 5.62518H15.014C15.1068 5.62518 15.158 5.73437 15.1012 5.80811L10.224 12.2007C10.1826 12.2551 10.1297 12.299 10.0692 12.3292C10.0087 12.3595 9.94225 12.3752 9.87494 12.3752C9.80763 12.3752 9.74121 12.3595 9.68072 12.3292C9.62023 12.299 9.56728 12.2551 9.52588 12.2007Z" fill="white"/>
</svg>
