<svg width="27" height="30" viewBox="0 0 27 30" fill="none" xmlns="http://www.w3.org/2000/svg">
<path d="M20.6964 15.1413L20.6964 15.1412C20.717 15.0169 20.7113 14.8894 20.6798 14.768C20.6484 14.6467 20.5923 14.5354 20.5168 14.4416C20.4413 14.3479 20.3484 14.2742 20.2456 14.2242C20.1431 14.1743 20.0324 14.1488 19.921 14.1486C19.9209 14.1486 19.9208 14.1486 19.9207 14.1486L15.914 14.1486C15.9139 14.1486 15.9139 14.1486 15.9139 14.1486C15.7444 14.1487 15.5777 14.1101 15.4255 14.0366C15.2734 13.9631 15.1403 13.8568 15.0344 13.7265C14.9285 13.5963 14.8522 13.4449 14.8094 13.2834C14.7667 13.1221 14.7581 12.9535 14.7841 12.7888C14.7841 12.7888 14.7841 12.7888 14.7841 12.7887C14.7842 12.7885 14.7842 12.7883 14.7842 12.7881L15.2969 9.52324C15.2969 9.52323 15.2969 9.52321 15.2969 9.5232C15.3697 9.05955 15.3491 8.58516 15.2365 8.13059C15.2013 7.99481 15.1344 7.87253 15.044 7.77426C14.9533 7.67567 14.8421 7.60461 14.7218 7.56542L14.7164 7.56367L14.7164 7.56364L14.6055 7.52613C14.6054 7.52607 14.6052 7.52601 14.605 7.52595C14.4785 7.48368 14.3415 7.49312 14.2201 7.55379C14.0886 7.62017 13.9913 7.74173 13.955 7.88784L13.9549 7.88801L13.5868 9.36862L13.5868 9.36867C13.4604 9.8767 13.2767 10.3676 13.0393 10.8312L20.6964 15.1413ZM20.6964 15.1413L20.1511 18.4351C19.7483 20.8672 17.6573 22.6467 15.2108 22.6467H11.616C11.4252 22.6466 11.2375 22.572 11.0909 22.4315C10.9436 22.2904 10.8488 22.0928 10.8309 21.876L10.8309 21.8759M20.6964 15.1413L10.8309 21.8759M10.8309 21.8759L10.2028 14.2932C10.2028 14.2931 10.2028 14.2931 10.2028 14.293C10.1916 14.1561 10.2117 14.0187 10.2609 13.8926L9.80014 13.713M10.8309 21.8759L9.80014 13.713M9.80014 13.713L10.2609 13.8926C10.31 13.7666 10.3862 13.6566 10.4815 13.5705C10.4816 13.5704 10.4817 13.5703 10.4818 13.5703L11.5941 12.5698C11.5941 12.5698 11.5941 12.5698 11.5941 12.5698M9.80014 13.713L11.5941 12.5698M11.5941 12.5698C11.5942 12.5697 11.5942 12.5697 11.5943 12.5697M11.5941 12.5698L11.5943 12.5697M11.5943 12.5697C12.1201 12.0973 12.6745 11.5439 13.0392 10.8314L11.5943 12.5697Z" fill="#12C6FF" stroke="#12C6FF"/>
<path d="M7.28415 13.5428L7.28468 13.5428C7.29848 13.5422 7.31565 13.5467 7.33216 13.5618C7.34936 13.5776 7.36412 13.604 7.36688 13.6374L7.36689 13.6375L8.11715 22.7085L8.11712 22.7085L8.11765 22.7142C8.12427 22.7845 8.11703 22.8554 8.09666 22.9221C8.0763 22.9888 8.04352 23.0491 8.00138 23.0998L8.38584 23.4195L8.00138 23.0998C7.95929 23.1504 7.90894 23.1902 7.85418 23.2178L8.07913 23.6643L7.85418 23.2178C7.79949 23.2453 7.74098 23.2605 7.68209 23.2631C7.62322 23.2658 7.564 23.256 7.50779 23.2337C7.45152 23.2114 7.39868 23.1767 7.3531 23.1307C7.30747 23.0845 7.27014 23.028 7.24451 22.9638C7.21885 22.8996 7.20575 22.8299 7.20651 22.7591H7.20654V22.7537L7.20654 13.6482C7.20654 13.6482 7.20654 13.6481 7.20654 13.6481C7.20658 13.6145 7.21923 13.5858 7.23613 13.5674C7.25244 13.5497 7.27025 13.5434 7.28415 13.5428Z" fill="black" stroke="#12C6FF"/>
</svg>
