<svg width="24" height="24" viewBox="0 0 24 24" fill="none" xmlns="http://www.w3.org/2000/svg">
<path d="M5 19.0002H6.098L16.796 8.30216L15.698 7.20416L5 17.9022V19.0002ZM4 20.0002V17.4802L17.18 4.28816C17.2827 4.19683 17.396 4.12616 17.52 4.07616C17.644 4.02616 17.773 4.00116 17.907 4.00116C18.0417 4.00116 18.1717 4.02216 18.297 4.06416C18.4237 4.10683 18.5403 4.18349 18.647 4.29416L19.713 5.36616C19.8237 5.47283 19.899 5.58949 19.939 5.71616C19.9797 5.84349 20 5.97083 20 6.09816C20 6.23349 19.977 6.36316 19.931 6.48716C19.8857 6.61049 19.813 6.72349 19.713 6.82616L6.52 20.0002H4ZM16.237 7.76216L15.698 7.20416L16.796 8.30216L16.237 7.76216Z" fill="white"/>
</svg>
