<svg width="23" height="22" viewBox="0 0 23 22" fill="none" xmlns="http://www.w3.org/2000/svg">
<path d="M10.7395 6.52775L11.2001 7.61895L11.6607 6.52775C12.2658 5.0944 13.7313 4.16663 15.497 4.16663C16.6 4.16663 17.6549 4.59167 18.4303 5.3436C19.2052 6.09501 19.6376 7.11081 19.6376 8.16663C19.6376 9.40497 19.1338 10.6293 18.33 11.791C17.5271 12.9512 16.4468 14.0172 15.3496 14.9277C14.2545 15.8364 13.1568 16.5786 12.3317 17.0941C11.9196 17.3516 11.5767 17.5516 11.3378 17.6869C11.2871 17.7156 11.2411 17.7414 11.2001 17.7642C11.1591 17.7414 11.1131 17.7156 11.0624 17.6869C10.8234 17.5516 10.4806 17.3516 10.0685 17.0941C9.24334 16.5786 8.14571 15.8364 7.05063 14.9277C5.95344 14.0172 4.87304 12.9512 4.07023 11.791C3.26642 10.6293 2.76257 9.40497 2.76257 8.16663C2.76257 7.11081 3.19496 6.09501 3.96986 5.3436C4.74528 4.59167 5.80016 4.16663 6.90321 4.16663C8.6689 4.16663 10.1344 5.0944 10.7395 6.52775Z" fill="#FF2E2E" stroke="#FF2E2E"/>
</svg>
