<svg width="40" height="40" viewBox="0 0 40 40" fill="none" xmlns="http://www.w3.org/2000/svg">
<path d="M27.9458 19.2242L13.74 8.3859C13.7029 8.35735 13.6583 8.33961 13.6113 8.33472C13.5643 8.32982 13.5169 8.33797 13.4744 8.35822C13.432 8.37847 13.3962 8.41 13.3713 8.44921C13.3464 8.48841 13.3333 8.53368 13.3335 8.57983V10.9593C13.3335 11.1101 13.406 11.2548 13.5257 11.3471L24.8702 19.9999L13.5257 28.6526C13.4028 28.745 13.3335 28.8896 13.3335 29.0405V31.4199C13.3335 31.6261 13.5761 31.74 13.74 31.6138L27.9458 20.7756C28.0665 20.6836 28.1642 20.5659 28.2314 20.4315C28.2986 20.2971 28.3335 20.1494 28.3335 19.9999C28.3335 19.8503 28.2986 19.7027 28.2314 19.5683C28.1642 19.4338 28.0665 19.3162 27.9458 19.2242Z" fill="white"/>
</svg>
