<svg width="12" height="16" viewBox="0 0 12 15" fill="none" xmlns="http://www.w3.org/2000/svg">
<path d="M6.61503 12.0767L11.1279 16C11.2753 15.8824 11.7891 15.6649 11.8727 15.478C11.9563 15.2912 12.0001 15.0825 12 14.8706L12 1.28734C12 0.945914 11.8865 0.618475 11.6846 0.377052C11.4826 0.13563 11.2087 0 10.9231 0L1.07692 0C0.791306 0 0.517386 0.13563 0.315424 0.377052C0.113461 0.618475 0 0.945914 0 1.28734L0 14.8706C-5.24521e-05 15.0825 0.0436621 15.2912 0.127262 15.478C0.210861 15.6649 0.929453 15.8242 1.07692 15.9418L5.79452 12.0767C5.87037 12.1372 6.1136 11.821 6.20478 11.821C6.29595 11.821 6.53919 12.1372 6.61503 12.0767ZM0.991539 15.0241C0.970518 15.0074 0.953276 14.9847 0.941335 14.9581C0.929395 14.9314 0.923123 14.9017 0.923077 14.8715L0.923077 1.28734C0.923077 1.23856 0.939285 1.19179 0.968137 1.1573C0.996989 1.12281 1.03612 1.10343 1.07692 1.10343L10.9231 1.10343C10.9639 1.10343 11.003 1.12281 11.0319 1.1573C11.0607 1.19179 11.0769 1.23856 11.0769 1.28734L11.0769 14.8706C11.0769 14.9008 11.0706 14.9305 11.0587 14.9571C11.0467 14.9838 11.0295 15.0065 11.0085 15.0232L6.20478 10.6054L0.991539 15.0241Z" fill="white"/>
</svg>
