<svg width="24" height="24" viewBox="0 0 24 24" fill="none" xmlns="http://www.w3.org/2000/svg">
<path d="M14.6125 12.9279L13.8955 13.4772L14.7416 13.7932C15.7607 14.1738 16.6487 14.8398 17.2993 15.7117L17.3 15.7126C17.3099 15.7259 17.3142 15.7426 17.3119 15.759C17.3095 15.7754 17.3008 15.7902 17.2875 15.8001C17.2742 15.8101 17.2576 15.8143 17.2412 15.812C17.2247 15.8096 17.2099 15.8009 17.2 15.7876C16.6819 15.0968 16.01 14.5361 15.2376 14.1499C14.4652 13.7637 13.6136 13.5626 12.75 13.5626C11.8864 13.5626 11.0348 13.7637 10.2624 14.1499C9.48999 14.5361 8.81813 15.0968 8.3 15.7876C8.29006 15.8009 8.27525 15.8096 8.25884 15.812C8.24243 15.8143 8.22576 15.8101 8.2125 15.8001C8.19924 15.7902 8.19047 15.7754 8.18813 15.759C8.18578 15.7426 8.19005 15.7259 8.2 15.7126L8.20071 15.7117C8.85135 14.8398 9.73928 14.1738 10.7584 13.7932L11.6045 13.4772L10.8875 12.9279C10.3794 12.5386 10.006 11.9999 9.81988 11.3875C9.63372 10.7751 9.64413 10.1197 9.84965 9.51353C10.0552 8.90734 10.4455 8.38077 10.9657 8.00784C11.4859 7.6349 12.1099 7.43434 12.75 7.43434C13.3901 7.43434 14.0141 7.6349 14.5343 8.00784C15.0545 8.38077 15.4448 8.90734 15.6503 9.51353C15.8559 10.1197 15.8663 10.7751 15.6801 11.3875C15.494 11.9999 15.1206 12.5386 14.6125 12.9279ZM4.6875 6.68762H5.1875V6.18762V3.75012C5.1875 3.53463 5.2731 3.32797 5.42548 3.1756C5.57785 3.02322 5.78451 2.93762 6 2.93762H19.5C19.7155 2.93762 19.9222 3.02322 20.0745 3.1756C20.2269 3.32797 20.3125 3.53463 20.3125 3.75012V20.2501C20.3125 20.4656 20.2269 20.6723 20.0745 20.8246C19.9222 20.977 19.7155 21.0626 19.5 21.0626H6C5.78451 21.0626 5.57785 20.977 5.42548 20.8246C5.2731 20.6723 5.1875 20.4656 5.1875 20.2501V17.8126V17.3126H4.6875H3C2.98342 17.3126 2.96753 17.306 2.95581 17.2943C2.94409 17.2826 2.9375 17.2667 2.9375 17.2501C2.9375 17.2335 2.94409 17.2176 2.95581 17.2059C2.96753 17.1942 2.98342 17.1876 3 17.1876H4.6875H5.1875V16.6876V12.5626V12.0626H4.6875H3C2.98342 12.0626 2.96753 12.056 2.95581 12.0443C2.94409 12.0326 2.9375 12.0167 2.9375 12.0001C2.9375 11.9835 2.94408 11.9676 2.95581 11.9559C2.96753 11.9442 2.98342 11.9376 3 11.9376H4.6875H5.1875V11.4376V7.31262V6.81262H4.6875H3C2.98343 6.81262 2.96753 6.80604 2.95581 6.79432L2.60377 7.14635L2.95581 6.79431C2.94408 6.78259 2.9375 6.7667 2.9375 6.75012C2.9375 6.73355 2.94408 6.71765 2.95581 6.70593C2.96753 6.69421 2.98342 6.68762 3 6.68762H4.6875ZM19.9861 20.7363L19.9861 20.7362C20.1151 20.6073 20.1875 20.4325 20.1875 20.2501V3.75012C20.1875 3.56779 20.1151 3.39292 19.9861 3.26399L19.6326 3.61754L19.9861 3.26398C19.8572 3.13505 19.6823 3.06262 19.5 3.06262H6C5.81766 3.06262 5.6428 3.13505 5.51386 3.26399C5.38493 3.39292 5.3125 3.56779 5.3125 3.75012V20.2501C5.3125 20.4325 5.38493 20.6073 5.51386 20.7363L5.86742 20.3827L5.51387 20.7363C5.6428 20.8652 5.81766 20.9376 6 20.9376H19.5C19.6823 20.9376 19.8572 20.8652 19.9861 20.7363ZM10.3076 8.86813C9.98478 9.3512 9.8125 9.91914 9.8125 10.5001C9.8125 11.2792 10.122 12.0264 10.6729 12.5772C11.2238 13.1281 11.9709 13.4376 12.75 13.4376C13.331 13.4376 13.8989 13.2653 14.382 12.9426C14.8651 12.6198 15.2416 12.161 15.4639 11.6243C15.6862 11.0875 15.7444 10.4969 15.6311 9.92704C15.5177 9.35723 15.2379 8.83381 14.8271 8.423C14.4163 8.01218 13.8929 7.73241 13.3231 7.61907C12.7533 7.50572 12.1626 7.56389 11.6259 7.78623C11.0891 8.00856 10.6303 8.38507 10.3076 8.86813Z" stroke="white"/>
</svg>
